HIERARCHY
ROOT hip
{
  OFFSET 0 0 0
  CHANNELS 6 Xposition Yposition Zposition Zrotation Yrotation Xrotation
  JOINT abdomen
  {
    OFFSET 0 20.6881 -0.73152
    CHANNELS 3 Zrotation Xrotation Yrotation
    JOINT chest
    {
      OFFSET 0 11.7043 -0.48768
      CHANNELS 3 Zrotation Xrotation Yrotation
      JOINT neck
      {
        OFFSET 0 22.1894 -2.19456
        CHANNELS 3 Zrotation Xrotation Yrotation
        JOINT head
        {
          OFFSET -0.24384 7.07133 1.2192
          CHANNELS 3 Zrotation Xrotation Yrotation
          JOINT leftEye
          {
            OFFSET 4.14528 8.04674 8.04672
            CHANNELS 3 Zrotation Xrotation Yrotation
            End Site
            {
              OFFSET 1 0 0
            }
          }
          JOINT rightEye
          {
            OFFSET -3.6576 8.04674 8.04672
            CHANNELS 3 Zrotation Xrotation Yrotation
            End Site
            {
              OFFSET 1 0 0
            }
          }
        }
      }
      JOINT rCollar
      {
        OFFSET -2.68224 19.2634 -4.8768
        CHANNELS 3 Zrotation Xrotation Yrotation
        JOINT rShldr
        {
          OFFSET -8.77824 -1.95073 1.46304
          CHANNELS 3 Zrotation Xrotation Yrotation
          JOINT rForeArm
          {
            OFFSET -28.1742 -1.7115 0.48768
            CHANNELS 3 Zrotation Xrotation Yrotation
            JOINT rHand
            {
              OFFSET -22.5879 0.773209 7.07136
              CHANNELS 3 Zrotation Xrotation Yrotation
              JOINT rThumb1
              {
                OFFSET -1.2192 -0.487915 3.41376
                CHANNELS 3 Zrotation Xrotation Yrotation
                JOINT rThumb2
                {
                  OFFSET -3.37035 -0.52449 3.41376
                  CHANNELS 3 Zrotation Xrotation Yrotation
                  End Site
                  {
                    OFFSET -1.78271 -1.18214 1.43049
                  }
                }
              }
              JOINT rIndex1
              {
                OFFSET -7.75947 0.938293 5.60832
                CHANNELS 3 Zrotation Xrotation Yrotation
                JOINT rIndex2
                {
                  OFFSET -2.54057 -0.884171 1.56538
                  CHANNELS 3 Zrotation Xrotation Yrotation
                  End Site
                  {
                    OFFSET -1.62519 -0.234802 1.16502
                  }
                }
              }
              JOINT rMid1
              {
                OFFSET -8.24714 1.18213 3.41376
                CHANNELS 3 Zrotation Xrotation Yrotation
                JOINT rMid2
                {
                  OFFSET -3.10165 -0.590103 1.0647
                  CHANNELS 3 Zrotation Xrotation Yrotation
                  End Site
                  {
                    OFFSET -2.48547 -0.328903 0.83742
                  }
                }
              }
              JOINT rRing1
              {
                OFFSET -8.82822 0.546677 1.51678
                CHANNELS 3 Zrotation Xrotation Yrotation
                JOINT rRing2
                {
                  OFFSET -2.60934 -0.819778 -0.0198488
                  CHANNELS 3 Zrotation Xrotation Yrotation
                  End Site
                  {
                    OFFSET -2.33842 -0.294052 0.168128
                  }
                }
              }
              JOINT rPinky1
              {
                OFFSET -8.27202 -0.0477905 -0.4584
                CHANNELS 3 Zrotation Xrotation Yrotation
                JOINT rPinky2
                {
                  OFFSET -1.82734 -0.647385 -0.700984
                  CHANNELS 3 Zrotation Xrotation Yrotation
                  End Site
                  {
                    OFFSET -1.69225 -0.51767 -0.607171
                  }
                }
              }
            }
          }
        }
      }
      JOINT lCollar
      {
        OFFSET 2.68224 19.2634 -4.8768
        CHANNELS 3 Zrotation Xrotation Yrotation
        JOINT lShldr
        {
          OFFSET 8.77824 -1.95073 1.46304
          CHANNELS 3 Zrotation Xrotation Yrotation
          JOINT lForeArm
          {
            OFFSET 28.1742 -1.7115 0.48768
            CHANNELS 3 Zrotation Xrotation Yrotation
            JOINT lHand
            {
              OFFSET 22.5879 0.773209 7.07136
              CHANNELS 3 Zrotation Xrotation Yrotation
              JOINT lThumb1
              {
                OFFSET 1.2192 -0.487915 3.41376
                CHANNELS 3 Zrotation Xrotation Yrotation
                JOINT lThumb2
                {
                  OFFSET 3.37035 -0.52449 3.41376
                  CHANNELS 3 Zrotation Xrotation Yrotation
                  End Site
                  {
                    OFFSET 1.78271 -1.18214 1.43049
                  }
                }
              }
              JOINT lIndex1
              {
                OFFSET 7.75947 0.938293 5.60832
                CHANNELS 3 Zrotation Xrotation Yrotation
                JOINT lIndex2
                {
                  OFFSET 2.54057 -0.884171 1.56538
                  CHANNELS 3 Zrotation Xrotation Yrotation
                  End Site
                  {
                    OFFSET 1.62519 -0.234802 1.16502
                  }
                }
              }
              JOINT lMid1
              {
                OFFSET 8.24714 1.18213 3.41376
                CHANNELS 3 Zrotation Xrotation Yrotation
                JOINT lMid2
                {
                  OFFSET 3.10165 -0.590103 1.0647
                  CHANNELS 3 Zrotation Xrotation Yrotation
                  End Site
                  {
                    OFFSET 2.48547 -0.328903 0.83742
                  }
                }
              }
              JOINT lRing1
              {
                OFFSET 8.82822 0.546677 1.51678
                CHANNELS 3 Zrotation Xrotation Yrotation
                JOINT lRing2
                {
                  OFFSET 2.60934 -0.819778 -0.0198488
                  CHANNELS 3 Zrotation Xrotation Yrotation
                  End Site
                  {
                    OFFSET 2.33842 -0.294052 0.168128
                  }
                }
              }
              JOINT lPinky1
              {
                OFFSET 8.27202 -0.0477905 -0.4584
                CHANNELS 3 Zrotation Xrotation Yrotation
                JOINT lPinky2
                {
                  OFFSET 1.82734 -0.647385 -0.700984
                  CHANNELS 3 Zrotation Xrotation Yrotation
                  End Site
                  {
                    OFFSET 1.69225 -0.51767 -0.607171
                  }
                }
              }
            }
          }
        }
      }
    }
  }
  JOINT rButtock
  {
    OFFSET -8.77824 4.35084 1.2192
    CHANNELS 3 Zrotation Xrotation Yrotation
    JOINT rThigh
    {
      OFFSET 0 -1.70687 -2.19456
      CHANNELS 3 Zrotation Xrotation Yrotation
      JOINT rShin
      {
        OFFSET 0 -36.8199 0.73152
        CHANNELS 3 Zrotation Xrotation Yrotation
        JOINT rFoot
        {
          OFFSET 0.73152 -45.1104 -5.12064
          CHANNELS 3 Zrotation Xrotation Yrotation
          End Site
          {
            OFFSET -1.1221 -3.69964 12.103
          }
        }
      }
    }
  }
  JOINT lButtock
  {
    OFFSET 8.77824 4.35084 1.2192
    CHANNELS 3 Zrotation Xrotation Yrotation
    JOINT lThigh
    {
      OFFSET 0 -1.70687 -2.19456
      CHANNELS 3 Zrotation Xrotation Yrotation
      JOINT lShin
      {
        OFFSET 0 -36.8199 0.73152
        CHANNELS 3 Zrotation Xrotation Yrotation
        JOINT lFoot
        {
          OFFSET -0.73152 -45.1104 -5.12064
          CHANNELS 3 Zrotation Xrotation Yrotation
          End Site
          {
            OFFSET 1.1221 -3.69964 12.103
          }
        }
      }
    }
  }
}
MOTION
Frames:	4
Frame Time:	0.03333
-0.11309000104665756 61.29309844970703 1.593000054359436 -4.250000081956387 5.324199981987476 6.7493002116680145 1.9016900472342968 17.000299394130707 -3.0631601437926292 3.7808699905872345 -12.655799388885498 -0.22594999987632036 -5.615899935364723 14.310499727725983 -3.028010129928589 11.262599676847458 -34.32820111513138 -2.4797999672591686 0.0 0.0 0.0 0.0 0.0 0.0 0.0 0.0 0.0 31.748999655246735 20.14130026102066 52.40650177001953 -20.947499871253967 -14.25120010972023 41.03619933128357 -0.1810520002618432 12.031000256538391 1.7164399288594723 2.4626700678709312e-09 2.21953655454854e-08 1.2994405551580712e-09 4.268585485078802e-09 3.904204959326307e-08 2.220303940703161e-09 2.4626700678709312e-09 2.21953655454854e-08 1.2994405551580712e-09 7.7309102565050125 5.474880114197731 0.41731400415301323 2.4626700678709312e-09 2.21953655454854e-08 1.2994405551580712e-09 2.905540131032467 0.9651830233633518 0.102901995414868 2.4626700678709312e-09 2.21953655454854e-08 1.2994405551580712e-09 10.27859978377819 0.7318009994924068 0.025912300043273717 2.4626700678709312e-09 2.21953655454854e-08 1.2994405551580712e-09 2.221670038998127 -0.733487019315362 -0.2089200052432716 0.0 0.0 0.0 2.050420045852661 23.667798936367035 -111.18800282478333 27.57359951734543 -42.23329871892929 -88.04259896278381 2.860569879412651 -42.37709999084473 7.368970289826393 -2.1582735598713043e-09 1.7138290786533616e-10 -6.446043698815629e-10 -3.693685357575305e-09 2.353317540837452e-10 -1.1971224012086168e-09 -2.1582735598713043e-09 1.7138290786533616e-10 -6.446043698815629e-10 -7.7309102565050125 5.474880114197731 -0.41731400415301323 -2.1582735598713043e-09 1.7138290786533616e-10 -6.446043698815629e-10 -2.905540131032467 0.9651830233633518 -0.102901995414868 -2.1582735598713043e-09 1.7138290786533616e-10 -6.446043698815629e-10 -10.27859978377819 0.7318009994924068 -0.025912300043273717 -2.1582735598713043e-09 1.7138290786533616e-10 -6.446043698815629e-10 -2.221670038998127 -0.733487019315362 0.2089200052432716 0.0 0.0 0.0 -19.050600081682205 -56.3321989774704 -38.74659866094589 -1.6456500627100468 66.2077009677887 1.8472700379788876 -5.762520208954811 -5.846909880638123 -21.856500506401062 0.0 0.0 0.0 16.501600295305252 -35.533400774002075 15.919700413942337 173.7279975414276 79.60470199584961 -175.28700470924377 2.2481199726462364 -8.11118982732296 12.016500234603882
-0.18564999848604202 61.26530075073242 3.305000066757202 -4.95889987796545 2.2859000600874424 6.5438999980688095 2.336099948734045 17.752799838781357 -2.6021100394427776 3.7287600338459015 -12.734900414943695 -0.10535799781791866 -5.430369861423969 14.074800610542297 -2.0766699872910976 11.403399556875229 -34.25029903650284 -0.5005250126123428 0.0 0.0 0.0 0.0 0.0 0.0 0.0 0.0 0.0 27.957498729228973 22.25629985332489 56.318299770355225 -20.78650027513504 -14.03409942984581 40.62509983778 -0.1984720048494637 12.590999901294708 1.7988900281488895 2.4300561562995426e-11 1.0487610779819079e-09 -7.16227077646181e-11 4.028777311759768e-11 1.7777779248717707e-09 -1.3301360013429075e-10 2.4300561562995426e-11 1.0487610779819079e-09 -7.16227077646181e-11 7.7309102565050125 5.474880114197731 0.41731400415301323 2.4300561562995426e-11 1.0487610779819079e-09 -7.16227077646181e-11 2.905540131032467 0.9651830233633518 0.102901995414868 2.4300561562995426e-11 1.0487610779819079e-09 -7.16227077646181e-11 10.27859978377819 0.7318009994924068 0.025912300043273717 2.4300561562995426e-11 1.0487610779819079e-09 -7.16227077646181e-11 2.221670038998127 -0.733487019315362 -0.2089200052432716 0.0 0.0 0.0 2.8142199665308 17.547999769449234 -113.17399621009827 27.267900109291077 -43.25379878282547 -89.97940063476562 2.2987099550664425 -38.88019949197769 6.506849974393845 4.860112312599085e-10 -8.952838470577262e-11 7.776179700158536e-10 8.127898354359786e-10 -1.6115109247039072e-10 1.3608314475277439e-09 4.860112312599085e-10 -8.952838470577262e-11 7.776179700158536e-10 -7.7309102565050125 5.474880114197731 -0.41731400415301323 4.860112312599085e-10 -8.952838470577262e-11 7.776179700158536e-10 -2.905540131032467 0.9651830233633518 -0.102901995414868 4.860112312599085e-10 -8.952838470577262e-11 7.776179700158536e-10 -10.27859978377819 0.7318009994924068 -0.025912300043273717 4.860112312599085e-10 -8.952838470577262e-11 7.776179700158536e-10 -2.221670038998127 -0.733487019315362 0.2089200052432716 0.0 0.0 0.0 -15.550999939441681 -55.65670073032379 -35.92260003089905 -1.641910057514906 66.46760165691376 1.9538499601185322 -6.0152701288461685 -6.92856028676033 -21.64189964532852 0.0 0.0 0.0 16.991200000047684 -41.57590001821518 18.03640052676201 174.39599633216858 77.67419815063477 -175.66100120544434 2.7459299191832542 -8.957550153136253 12.546599954366684
-0.22512999922037125 61.18149948120117 5.1260000467300415 -5.3050000593066216 -0.930299973115325 6.446299776434898 2.062479928135872 18.334699720144272 -1.924590077251196 3.7164999917149544 -12.835799753665924 0.05349680024664849 -5.384110137820244 13.829200118780136 -1.2046900391578674 11.657600551843643 -34.02050077915192 1.3427600171416998 0.0 0.0 0.0 0.0 0.0 0.0 0.0 0.0 0.0 23.741500675678253 24.278401136398315 60.40350258350372 -20.730499774217606 -13.957900553941727 40.487899482250214 -0.22666799370199442 13.44389945268631 1.9251799955964088 -4.546762966128881e-10 -1.928697201947216e-09 -3.4788172342814505e-10 -7.916867161839036e-10 -3.4634695111890323e-09 -5.934452929068357e-10 -4.546762966128881e-10 -1.928697201947216e-09 -3.4788172342814505e-10 7.7309102565050125 5.474880114197731 0.41731400415301323 -4.546762966128881e-10 -1.928697201947216e-09 -3.4788172342814505e-10 2.905540131032467 0.9651830233633518 0.102901995414868 -4.546762966128881e-10 -1.928697201947216e-09 -3.4788172342814505e-10 10.27859978377819 0.7318009994924068 0.025912300043273717 -4.546762966128881e-10 -1.928697201947216e-09 -3.4788172342814505e-10 2.221670038998127 -0.733487019315362 -0.2089200052432716 0.0 0.0 0.0 3.6982599645853043 12.168299853801727 -114.50100302696228 26.97280079126358 -44.079299569129944 -91.61409974098206 1.955020073801279 -36.29229962825775 5.9308502823114395 1.56035184772918e-10 -4.885691851086449e-10 9.106315701501444e-10 2.391686848568497e-10 -8.44124770082999e-10 1.5756995708215982e-09 1.56035184772918e-10 -4.885691851086449e-10 9.106315701501444e-10 -7.7309102565050125 5.474880114197731 -0.41731400415301323 1.56035184772918e-10 -4.885691851086449e-10 9.106315701501444e-10 -2.905540131032467 0.9651830233633518 -0.102901995414868 1.56035184772918e-10 -4.885691851086449e-10 9.106315701501444e-10 -10.27859978377819 0.7318009994924068 -0.025912300043273717 1.56035184772918e-10 -4.885691851086449e-10 9.106315701501444e-10 -2.221670038998127 -0.733487019315362 0.2089200052432716 0.0 0.0 0.0 -13.130900412797928 -54.9513977766037 -33.70719999074936 -1.6712800785899162 67.07130253314972 2.1116399578750134 -6.257299929857254 -8.149829730391502 -21.369199454784393 0.0 0.0 0.0 17.474000304937363 -47.815901041030884 20.218200534582138 174.25899982452393 77.66419887542725 -175.23199796676636 2.9808900877833366 -9.34608019888401 11.841600090265274
-0.22194999922066927 61.03670120239258 7.059000015258789 -5.4597001522779465 -4.384299963712692 6.352899894118309 1.379599990323186 18.787799924612045 -1.0664899740368128 3.630649857223034 -12.963400483131409 0.242595998570323 -5.397850088775158 13.547600358724594 -0.3587830066680908 11.889599561691284 -33.571700155735016 3.1078098714351654 0.0 0.0 0.0 0.0 0.0 0.0 0.0 0.0 0.0 19.073999673128128 26.162298917770386 64.75760221481323 -20.789799392223358 -14.03869941830635 40.63350051641464 -0.26227800641208887 14.427000135183334 2.071999926120043 -3.772981926886132e-10 -2.0617108020815067e-09 -1.3301360013429075e-10 -6.541966968143242e-10 -3.6143887882644776e-09 -2.2509993868879974e-10 -3.772981926886132e-10 -2.0617108020815067e-09 -1.3301360013429075e-10 7.7309102565050125 5.474880114197731 0.41731400415301323 -3.772981926886132e-10 -2.0617108020815067e-09 -1.3301360013429075e-10 2.905540131032467 0.9651830233633518 0.102901995414868 -3.772981926886132e-10 -2.0617108020815067e-09 -1.3301360013429075e-10 10.27859978377819 0.7318009994924068 0.025912300043273717 -3.772981926886132e-10 -2.0617108020815067e-09 -1.3301360013429075e-10 2.221670038998127 -0.733487019315362 -0.2089200052432716 0.0 0.0 0.0 4.641000106930733 7.397590130567551 -114.93499517440796 26.71000063419342 -44.749900102615356 -92.95030117034912 1.6027400828897953 -33.457899391651154 5.328940115869045 -6.727418622176629e-10 -4.885691851086449e-10 3.376499080331996e-10 -1.1747403050321736e-09 -8.390088623855263e-10 5.627498467219993e-10 -6.727418622176629e-10 -4.885691851086449e-10 3.376499080331996e-10 -7.7309102565050125 5.474880114197731 -0.41731400415301323 -6.727418622176629e-10 -4.885691851086449e-10 3.376499080331996e-10 -2.905540131032467 0.9651830233633518 -0.102901995414868 -6.727418622176629e-10 -4.885691851086449e-10 3.376499080331996e-10 -10.27859978377819 0.7318009994924068 -0.025912300043273717 -6.727418622176629e-10 -4.885691851086449e-10 3.376499080331996e-10 -2.221670038998127 -0.733487019315362 0.2089200052432716 0.0 0.0 0.0 -11.43640011548996 -54.160999059677124 -31.858801245689392 -1.7260700650513172 67.86679744720459 2.301009949296713 -6.469759717583656 -9.472549706697464 -21.036900579929352 0.0 0.0 0.0 18.65079939365387 -53.65879833698273 22.885800898075104 173.41399669647217 79.21669900417328 -174.12099480628967 2.9546399787068367 -9.15258027613163 10.542299821972847
